<svg width="122" height="122" viewBox="0 0 122 122" fill="none" xmlns="http://www.w3.org/2000/svg">
  <defs>
    <path id="dp-circle-text" d="M61 16 a45 45 0 1 1 0 90 a45 45 0 1 1 0 -90" />
  </defs>
  <circle cx="61" cy="61" r="60" stroke="#C9B896" stroke-width="1.5" stroke-dasharray="3 5" fill="#F8F5ED"/>
  <circle cx="61" cy="61" r="32" fill="#1D1C50"/>
  <path d="M70.2 52.4c-2.4-2.9-6.7-3.4-9.8-1.1-3.1-2.3-7.4-1.8-9.8 1.1-2.6 3.1-2.1 7.8 1.1 10.4l8.1 6.6c.4.3.9.3 1.2 0l8.1-6.6c3.2-2.6 3.7-7.3 1.1-10.4z" fill="#C9B896"/>
  <text fill="#1D1C50" font-family="Arial, Helvetica, sans-serif" font-size="10.5" font-weight="700" letter-spacing="1.8">
    <textPath href="#dp-circle-text" startOffset="0">THE PRIMEHEAL " BETTER SLEEP "</textPath>
  </text>
</svg>
