<?xml version="1.0" standalone="no"?>
<!DOCTYPE svg PUBLIC "-//W3C//DTD SVG 20010904//EN"
 "http://www.w3.org/TR/2001/REC-SVG-20010904/DTD/svg10.dtd">
<svg version="1.0" xmlns="http://www.w3.org/2000/svg"
 width="512.000000pt" height="512.000000pt" viewBox="0 0 512.000000 512.000000"
 preserveAspectRatio="xMidYMid meet">

<g transform="translate(0.000000,512.000000) scale(0.100000,-0.100000)"
fill="#1e204c" stroke="none">
<path d="M1946 5097 l-26 -26 0 -213 c0 -244 -11 -310 -64 -423 -106 -220
-302 -343 -815 -511 -107 -36 -235 -84 -285 -107 -281 -134 -445 -312 -518
-564 -21 -70 -23 -99 -22 -283 l0 -205 87 -505 c164 -966 237 -1545 253 -2020
4 -127 11 -192 20 -206 17 -28 60 -38 95 -24 46 20 53 52 45 238 -21 494 -88
1040 -246 1982 -101 603 -101 600 -101 755 0 154 21 248 78 357 100 191 274
308 638 428 430 143 638 250 782 404 82 87 150 209 185 332 21 73 23 98 23
326 0 275 0 274 -67 285 -30 4 -41 1 -62 -20z"/>
<path d="M3065 5096 l-27 -27 5 -247 c5 -276 14 -328 83 -466 45 -89 65 -117
139 -195 129 -136 350 -251 715 -371 208 -69 262 -90 355 -137 213 -107 344
-261 396 -460 15 -59 20 -110 19 -213 0 -151 -5 -189 -109 -805 -148 -883
-218 -1453 -237 -1937 -6 -153 -5 -180 9 -201 32 -49 115 -42 135 11 6 15 13
106 16 202 16 464 88 1040 253 2010 77 458 85 521 90 675 6 215 -13 322 -81
460 -123 247 -327 392 -747 529 -486 159 -687 279 -796 473 -69 124 -76 160
-82 435 -7 274 -7 274 -73 285 -31 4 -41 1 -63 -21z"/>
<path d="M1306 4857 c-25 -25 -26 -31 -26 -134 0 -119 9 -146 56 -157 38 -10
80 10 94 44 7 18 11 67 8 129 -3 113 -11 128 -70 138 -30 4 -41 1 -62 -20z"/>
<path d="M3706 4857 c-25 -25 -26 -31 -26 -134 0 -119 9 -146 56 -157 38 -10
80 10 94 44 7 18 11 67 8 129 -3 113 -11 128 -70 138 -30 4 -41 1 -62 -20z"/>
<path d="M906 4697 c-48 -48 -38 -78 65 -183 50 -51 104 -98 120 -104 62 -26
125 36 100 98 -7 16 -51 68 -99 115 -69 69 -96 89 -124 93 -30 5 -41 2 -62
-19z"/>
<path d="M4028 4623 c-100 -99 -115 -123 -104 -168 8 -31 59 -59 94 -50 33 8
196 167 212 206 23 55 -18 109 -82 109 -13 0 -59 -37 -120 -97z"/>
<path d="M745 4295 c-30 -29 -32 -74 -6 -106 18 -22 28 -24 121 -27 63 -3 112
1 130 8 57 23 63 110 9 137 -14 8 -65 13 -127 13 -96 0 -105 -2 -127 -25z"/>
<path d="M4105 4295 c-30 -29 -32 -74 -6 -106 18 -22 28 -24 121 -27 63 -3
112 1 130 8 57 23 63 110 9 137 -14 8 -65 13 -127 13 -96 0 -105 -2 -127 -25z"/>
<path d="M2119 3987 c-41 -32 -49 -80 -18 -117 48 -59 144 -211 179 -285 152
-319 193 -680 119 -1048 -11 -55 -52 -198 -90 -316 -253 -780 -302 -1353 -157
-1826 55 -182 166 -375 224 -389 50 -13 104 28 104 77 0 7 -21 44 -46 82 -52
78 -85 147 -120 247 l-23 68 177 0 178 0 38 -97 c77 -197 209 -383 270 -383
30 0 65 23 77 52 15 36 6 57 -56 133 -163 200 -259 585 -241 966 15 320 68
588 197 988 121 375 144 511 136 806 -6 217 -21 313 -79 494 -75 236 -255 540
-330 556 -37 9 -72 -8 -87 -42 -16 -34 -13 -54 10 -83 37 -46 102 -143 136
-203 30 -54 103 -211 103 -223 0 -2 -70 -3 -156 -2 l-156 3 -33 85 c-60 157
-175 355 -252 438 -33 34 -74 42 -104 19z m759 -749 c14 -56 29 -173 37 -275
l5 -83 -163 0 -164 0 -6 133 c-4 72 -13 162 -20 200 l-14 67 157 0 158 0 10
-42z m26 -555 c-11 -76 -45 -240 -62 -298 l-18 -60 -158 -3 c-133 -2 -157 0
-153 12 10 26 56 241 62 291 13 105 -6 95 175 95 l159 0 -5 -37z m-139 -535
c-15 -45 -75 -255 -90 -315 l-17 -73 -160 0 c-147 0 -159 1 -154 18 3 9 12 46
21 82 17 65 83 278 92 293 2 4 74 7 158 7 119 0 153 -3 150 -12z m-149 -590
c-18 -112 -36 -266 -36 -310 l0 -48 -170 0 -170 0 5 38 c17 126 27 197 41 275
l16 87 160 0 161 0 -7 -42z m-42 -625 c7 -109 23 -243 32 -275 5 -17 -8 -18
-170 -18 -174 0 -176 0 -181 23 -8 34 -25 245 -25 315 l0 62 169 0 168 0 7
-107z"/>
<path d="M1705 3495 c-23 -22 -25 -32 -25 -120 l0 -95 -135 0 c-131 0 -137 -1
-160 -25 -25 -24 -25 -26 -25 -213 0 -250 -11 -236 179 -240 l141 -4 0 -93 c0
-107 12 -132 70 -141 34 -6 45 3 290 206 144 119 261 224 269 241 13 25 13 33
0 58 -8 16 -127 123 -267 240 -276 229 -288 236 -337 186z m400 -455 c0 -5
-59 -58 -131 -119 l-132 -110 -4 55 c-7 85 -14 88 -178 92 l-140 4 0 79 0 79
125 0 c69 0 135 5 148 11 31 14 47 48 47 100 l0 40 133 -111 c72 -61 132 -115
132 -120z"/>
<path d="M1066 3097 c-23 -23 -26 -34 -26 -99 0 -232 29 -409 160 -1003 60
-269 115 -533 124 -585 30 -178 36 -325 36 -840 0 -562 -1 -550 56 -564 36 -9
79 9 93 40 14 32 15 978 1 1144 -16 193 -37 305 -155 840 -122 552 -141 660
-153 898 -9 169 -13 179 -74 189 -30 4 -41 1 -62 -20z"/>
<path d="M3946 3097 c-24 -24 -26 -34 -26 -104 0 -226 -24 -373 -160 -988 -91
-412 -140 -660 -140 -714 0 -7 -20 -11 -50 -11 l-50 0 0 95 c0 88 -2 98 -25
120 -49 50 -61 43 -337 -186 -140 -117 -259 -224 -267 -240 -13 -25 -13 -33 0
-58 8 -17 125 -122 269 -241 245 -203 256 -212 290 -206 58 9 70 34 70 142 l0
94 40 0 40 0 0 -373 c0 -406 0 -407 56 -421 36 -9 79 9 93 40 7 17 11 140 11
389 l0 365 85 0 c46 0 95 5 109 11 42 19 48 52 44 247 -4 223 0 215 -128 220
-53 3 -90 8 -90 14 0 46 48 288 140 703 118 532 134 619 151 829 13 161 9 250
-12 272 -9 8 -32 17 -51 21 -30 4 -41 1 -62 -20z m-563 -1954 c16 -16 43 -18
237 -21 l220 -3 0 -80 0 -79 -215 0 c-216 0 -216 0 -240 -25 -20 -19 -25 -34
-25 -75 l0 -51 -132 111 c-73 61 -133 115 -133 120 0 5 59 58 130 118 l130
109 5 -53 c3 -32 12 -61 23 -71z"/>
</g>
</svg>
